name C:\Users\antoi\Documents\MyRepositories\upper-imu-dc\Results\main_tracking\Case_70\ABD01_angularVelocities_groundFrame.mot
datacolumns 4
datarows 141
range 8.06000000 9.46000000
endheader 
time	radius_imu_x	radius_imu_y	radius_imu_z	
          8.06000000	          1.46510788	         -0.22709839	         -0.15380857	
          8.07000000	          1.45671231	         -0.24100820	         -0.11926285	
          8.08000000	          1.44713687	         -0.25499493	         -0.08707467	
          8.09000000	          1.43650487	         -0.26876091	         -0.05740099	
          8.10000000	          1.42494479	         -0.28202963	         -0.03034372	
          8.11000000	          1.41259309	         -0.29455062	         -0.00595052	
          8.12000000	          1.39959732	         -0.30610178	          0.01578464	
          8.13000000	          1.38611882	         -0.31648899	          0.03491928	
          8.14000000	          1.37233419	         -0.32554423	          0.05155723	
          8.15000000	          1.35843441	         -0.33312404	          0.06584033	
          8.16000000	          1.34462186	         -0.33910859	          0.07793754	
          8.17000000	          1.33110558	         -0.34340143	          0.08803310	
          8.18000000	          1.31809567	         -0.34593045	          0.09631614	
          8.19000000	          1.30579657	         -0.34664920	          0.10297402	
          8.20000000	          1.29440018	         -0.34553839	          0.10819000	
          8.21000000	          1.28407935	         -0.34260911	          0.11214463	
          8.22000000	          1.27498288	         -0.33790683	          0.11501843	
          8.23000000	          1.26723290	         -0.33151261	          0.11699402	
          8.24000000	          1.26092480	         -0.32354201	          0.11825683	
          8.25000000	          1.25612902	         -0.31414224	          0.11899249	
          8.26000000	          1.25289349	         -0.30348635	          0.11937778	
          8.27000000	          1.25124573	         -0.29176500	          0.11956599	
          8.28000000	          1.25119349	         -0.27917608	          0.11967108	
          8.29000000	          1.25272405	         -0.26591423	          0.11975675	
          8.30000000	          1.25580252	         -0.25216207	          0.11983461	
          8.31000000	          1.26037075	         -0.23808510	          0.11987212	
          8.32000000	          1.26634762	         -0.22383040	          0.11980853	
          8.33000000	          1.27363147	         -0.20952843	          0.11957528	
          8.34000000	          1.28210346	         -0.19529833	          0.11911906	
          8.35000000	          1.29163357	         -0.18125362	          0.11842546	
          8.36000000	          1.30208680	         -0.16750728	          0.11754080	
          8.37000000	          1.31332470	         -0.15417933	          0.11658879	
          8.38000000	          1.32520356	         -0.14140373	          0.11577676	
          8.39000000	          1.33757217	         -0.12933369	          0.11538901	
          8.40000000	          1.35027032	         -0.11814530	          0.11576906	
          8.41000000	          1.36312911	         -0.10803796	          0.11729330	
          8.42000000	          1.37597443	         -0.09923231	          0.12033865	
          8.43000000	          1.38863316	         -0.09196487	          0.12524723	
          8.44000000	          1.40094136	         -0.08647904	          0.13229277	
          8.45000000	          1.41275312	         -0.08301313	          0.14165436	
          8.46000000	          1.42394778	         -0.08178705	          0.15340176	
          8.47000000	          1.43443461	         -0.08298840	          0.16749340	
          8.48000000	          1.44415440	         -0.08676012	          0.18378586	
          8.49000000	          1.45307793	         -0.09319052	          0.20205167	
          8.50000000	          1.46120222	         -0.10230613	          0.22200246	
          8.51000000	          1.46854472	         -0.11406873	          0.24331485	
          8.52000000	          1.47513598	         -0.12837656	          0.26565665	
          8.53000000	          1.48101166	         -0.14506932	          0.28871054	
          8.54000000	          1.48620441	         -0.16393536	          0.31219005	
          8.55000000	          1.49073654	         -0.18471824	          0.33584112	
          8.56000000	          1.49461502	         -0.20711871	          0.35942426	
          8.57000000	          1.49783044	         -0.23079172	          0.38267963	
          8.58000000	          1.50036083	         -0.25534048	          0.40528502	
          8.59000000	          1.50217977	         -0.28030880	          0.42681949	
          8.60000000	          1.50326655	         -0.30517538	          0.44674340	
          8.61000000	          1.50361520	         -0.32935288	          0.46439820	
          8.62000000	          1.50323949	         -0.35219131	          0.47902251	
          8.63000000	          1.50217277	         -0.37298548	          0.48977990	
          8.64000000	          1.50046353	         -0.39098921	          0.49580013	
          8.65000000	          1.49816812	         -0.40544226	          0.49623934	
          8.66000000	          1.49534253	         -0.41561534	          0.49036374	
          8.67000000	          1.49203470	         -0.42087561	          0.47765479	
          8.68000000	          1.48827860	         -0.42076839	          0.45792491	
          8.69000000	          1.48409118	         -0.41510365	          0.43142204	
          8.70000000	          1.47947214	         -0.40402722	          0.39889137	
          8.71000000	          1.47440608	         -0.38805098	          0.36155994	
          8.72000000	          1.46886622	         -0.36802275	          0.32102753	
          8.73000000	          1.46281965	         -0.34503899	          0.27908579	
          8.74000000	          1.45623344	         -0.32032584	          0.23751806	
          8.75000000	          1.44908057	         -0.29511927	          0.19792962	
          8.76000000	          1.44134437	         -0.27056575	          0.16163424	
          8.77000000	          1.43302092	         -0.24765319	          0.12960041	
          8.78000000	          1.42411977	         -0.22717309	          0.10244663	
          8.79000000	          1.41466487	         -0.20970771	          0.08046842	
          8.80000000	          1.40469841	         -0.19563083	          0.06367875	
          8.81000000	          1.39426913	         -0.18510567	          0.05184900	
          8.82000000	          1.38344812	         -0.17809739	          0.04454702	
          8.83000000	          1.37234473	         -0.17439389	          0.04117682	
          8.84000000	          1.36109308	         -0.17362372	          0.04101825	
          8.85000000	          1.34984180	         -0.17528861	          0.04327270	
          8.86000000	          1.33874318	         -0.17879318	          0.04711235	
          8.87000000	          1.32793148	         -0.18349312	          0.05172146	
          8.88000000	          1.31750305	         -0.18873954	          0.05633013	
          8.89000000	          1.30750966	         -0.19389950	          0.06024265	
          8.90000000	          1.29795947	         -0.19837608	          0.06285575	
          8.91000000	          1.28882630	         -0.20161818	          0.06366727	
          8.92000000	          1.28006325	         -0.20311585	          0.06227626	
          8.93000000	          1.27161603	         -0.20238508	          0.05837665	
          8.94000000	          1.26343254	         -0.19895106	          0.05174834	
          8.95000000	          1.25546672	         -0.19233847	          0.04225076	
          8.96000000	          1.24767063	         -0.18207118	          0.02982195	
          8.97000000	          1.23998999	         -0.16769579	          0.01448118	
          8.98000000	          1.23236524	         -0.14882122	         -0.00366448	
          8.99000000	          1.22473057	         -0.12515390	         -0.02441364	
          9.00000000	          1.21699733	         -0.09652801	         -0.04747078	
          9.01000000	          1.20905395	         -0.06293079	         -0.07245283	
          9.02000000	          1.20077886	         -0.02452003	         -0.09889834	
          9.03000000	          1.19204705	          0.01837020	         -0.12628068	
          9.04000000	          1.18274556	          0.06523108	         -0.15402019	
          9.05000000	          1.17277283	          0.11538496	         -0.18150126	
          9.06000000	          1.16203045	          0.16799984	         -0.20809381	
          9.07000000	          1.15042472	          0.22211849	         -0.23317757	
          9.08000000	          1.13787022	          0.27670508	         -0.25617229	
          9.09000000	          1.12428881	          0.33070853	         -0.27657440	
          9.10000000	          1.10960712	          0.38313796	         -0.29399500	
          9.11000000	          1.09375879	          0.43314045	         -0.30819053	
          9.12000000	          1.07668952	          0.48006276	         -0.31907712	
          9.13000000	          1.05836235	          0.52347163	         -0.32671841	
          9.14000000	          1.03876167	          0.56311473	         -0.33128301	
          9.15000000	          1.01789448	          0.59882990	         -0.33298214	
          9.16000000	          0.99578884	          0.63043626	         -0.33200875	
          9.17000000	          0.97249030	          0.65764539	         -0.32849607	
          9.18000000	          0.94805789	          0.68001798	         -0.32250349	
          9.19000000	          0.92256124	          0.69697487	         -0.31402889	
          9.20000000	          0.89607957	          0.70786020	         -0.30304212	
          9.21000000	          0.86870282	          0.71204564	         -0.28953196	
          9.22000000	          0.84053404	          0.70905691	         -0.27355701	
          9.23000000	          0.81169233	          0.69869332	         -0.25528765	
          9.24000000	          0.78231474	          0.68110502	         -0.23502502	
          9.25000000	          0.75255503	          0.65680568	         -0.21319097	
          9.26000000	          0.72257866	          0.62663219	         -0.19029793	
          9.27000000	          0.69255539	          0.59169039	         -0.16691686	
          9.28000000	          0.66265031	          0.55331300	         -0.14365427	
          9.29000000	          0.63301262	          0.51301727	         -0.12113239	
          9.30000000	          0.60376301	          0.47242954	         -0.09995954	
          9.31000000	          0.57498194	          0.43316922	         -0.08068940	
          9.32000000	          0.54670259	          0.39672181	         -0.06378139	
          9.33000000	          0.51891159	          0.36433768	         -0.04957371	
          9.34000000	          0.49155738	          0.33697136	         -0.03827172	
          9.35000000	          0.46456336	          0.31525590	         -0.02994732	
          9.36000000	          0.43784322	          0.29950065	         -0.02454521	
          9.37000000	          0.41131584	          0.28970339	         -0.02189409	
          9.38000000	          0.38491837	          0.28556975	         -0.02172202	
          9.39000000	          0.35861544	          0.28653539	         -0.02367441	
          9.40000000	          0.33240328	          0.29178881	         -0.02733316	
          9.41000000	          0.30631218	          0.30029372	         -0.03223412	
          9.42000000	          0.28040472	          0.31081145	         -0.03788277	
          9.43000000	          0.25477021	          0.32192779	         -0.04376947	
          9.44000000	          0.22952243	          0.33209382	         -0.04938428	
          9.45000000	          0.20479516	          0.33969436	         -0.05423564	
          9.46000000	          0.18073492	          0.34315528	         -0.05787608	
